<svg width="52" height="53" viewBox="0 0 52 53" fill="none" xmlns="http://www.w3.org/2000/svg">
<g clip-path="url(#clip0_1_27282)">
<path d="M26.0195 5.75C39.4725 5.75 50.2695 15.7693 50.2695 28C50.2695 40.2307 39.4725 50.25 26.0195 50.25C12.5665 50.25 1.76953 40.2307 1.76953 28C1.76953 15.7693 12.5665 5.75 26.0195 5.75Z" fill="#EF4444" stroke="#212526" stroke-width="1.5"/>
<path d="M25.1849 32.265C25.5801 31.666 26.459 31.666 26.8542 32.265L28.4604 34.6993C28.8991 35.3641 28.4223 36.25 27.6257 36.25H24.4133C23.6168 36.25 23.14 35.3641 23.5787 34.6993L25.1849 32.265Z" fill="#212526"/>
<path d="M50.5195 28L0.0195312 28" stroke="#212526"/>
<path d="M26.0195 27.5V24" stroke="#212526"/>
<path d="M38.0195 27.5V24" stroke="#212526"/>
<path d="M29.0195 26.5V25.5" stroke="#212526" stroke-linecap="round"/>
<path d="M35.0195 26.5V25.5M33.0195 26.5V25.5M31.0195 26.5V25.5" stroke="#212526" stroke-linecap="round"/>
<path d="M41.0195 26.5V25.5" stroke="#212526" stroke-linecap="round"/>
<path d="M47.0195 26.5V25.5M45.0195 26.5V25.5M43.0195 26.5V25.5" stroke="#212526" stroke-linecap="round"/>
</g>
<path d="M21.4604 5.85094C20.523 5.90858 19.5337 6.0458 18.5148 6.24455C13.5256 7.21783 14.638 11.0652 19.5139 9.62808C20.815 9.24458 21.871 8.92191 22.5685 8.71724C23.1875 8.53559 23.1748 8.61588 22.5939 8.89666C19.0986 10.5863 18.4382 12.7722 18.6398 14.6032C19.0011 17.8848 22.2562 13.3704 25.1863 11.8491C26.6083 11.1107 25.9772 12.7533 26.0172 14.3551C26.0449 15.4613 26.0966 16.4021 26.1857 17.1845C26.4109 19.161 28.6356 19.8696 29.3674 18.0198C29.6084 17.4107 29.7783 16.7031 29.9032 15.9576C30.4959 12.4202 33.1222 10.6111 34.7097 13.8273C36.1266 16.698 38.6114 15.991 37.3244 13.0597C36.4258 11.013 34.9003 9.04735 33.4871 8.53631C33.0542 8.32258 34.4506 8.65634 36.6421 9.18952C40.954 10.2386 41.6962 7.77599 37.4077 6.63498C36.2387 6.32397 35.141 6.08181 34.1825 5.93917C32.787 5.73148 31.3578 4.49944 31.3578 3.08855C31.3578 1.93507 30.4227 1 29.2693 1H26.387C25.1244 1 24.1009 2.02353 24.1009 3.28613C24.1009 4.68208 22.8537 5.76526 21.4604 5.85094Z" fill="#22C55E" stroke="#212526" stroke-width="1.5"/>
<defs>
<clipPath id="clip0_1_27282">
<rect width="50.9804" height="50" fill="white" transform="translate(1.01953 3)"/>
</clipPath>
</defs>
</svg>
