<svg width="40" height="40" viewBox="0 0 40 40" fill="none" xmlns="http://www.w3.org/2000/svg">
<rect width="40" height="40" rx="20" fill="white"/>
<path d="M20 11C15.0301 11 11 15.1314 11 20.2278C11 24.305 13.5788 27.764 17.1548 28.9841C17.6046 29.0695 17.7697 28.784 17.7697 28.5402C17.7697 28.3202 17.7613 27.5932 17.7575 26.8222C15.2536 27.3804 14.7253 25.7334 14.7253 25.7334C14.3159 24.6668 13.726 24.3832 13.726 24.3832C12.9095 23.8105 13.7876 23.8222 13.7876 23.8222C14.6914 23.8873 15.1672 24.7732 15.1672 24.7732C15.9699 26.1839 17.2727 25.776 17.7863 25.5403C17.867 24.9438 18.1003 24.5368 18.3576 24.3064C16.3587 24.073 14.2572 23.2817 14.2572 19.7459C14.2572 18.7385 14.6088 17.9152 15.1845 17.269C15.0911 17.0366 14.783 16.098 15.2717 14.827C15.2717 14.827 16.0275 14.579 17.7474 15.7729C18.4652 15.5684 19.2352 15.4659 20 15.4624C20.7649 15.4659 21.5354 15.5684 22.2547 15.7729C23.9725 14.579 24.7272 14.827 24.7272 14.827C25.2171 16.098 24.9089 17.0366 24.8155 17.269C25.3925 17.9152 25.7417 18.7384 25.7417 19.7459C25.7417 23.2901 23.6363 24.0706 21.6322 24.299C21.955 24.5854 22.2426 25.147 22.2426 26.0078C22.2426 27.2425 22.2322 28.2363 22.2322 28.5402C22.2322 28.7858 22.3942 29.0735 22.8504 28.9829C26.4245 27.7613 29 24.3036 29 20.2278C29 15.1314 24.9705 11 20 11Z" fill="#24292F"/>
<path d="M14.3704 24.1448C14.3507 24.1906 14.2802 24.2043 14.2162 24.1729C14.1509 24.1428 14.1142 24.0803 14.1354 24.0342C14.1548 23.9871 14.2253 23.9739 14.2904 24.0056C14.3558 24.0356 14.3931 24.0987 14.3704 24.1448M14.8132 24.5498C14.7702 24.5906 14.6863 24.5716 14.6294 24.5071C14.5705 24.4428 14.5595 24.3568 14.603 24.3153C14.6473 24.2746 14.7287 24.2936 14.7877 24.358C14.8465 24.4231 14.858 24.5086 14.8131 24.5498M15.1169 25.0679C15.0617 25.1072 14.9715 25.0704 14.9158 24.9883C14.8607 24.9063 14.8607 24.8079 14.917 24.7685C14.9729 24.729 15.0617 24.7645 15.1182 24.8459C15.1732 24.9293 15.1732 25.0278 15.1168 25.068M15.6305 25.6681C15.5811 25.7239 15.4761 25.7089 15.3992 25.6328C15.3205 25.5584 15.2986 25.4528 15.3481 25.397C15.398 25.3411 15.5036 25.3569 15.5811 25.4323C15.6593 25.5066 15.6831 25.613 15.6305 25.6681M16.2943 25.8708C16.2726 25.943 16.1714 25.9759 16.0694 25.9452C15.9677 25.9135 15.901 25.8289 15.9216 25.7558C15.9427 25.6831 16.0444 25.6489 16.1471 25.6817C16.2487 25.7132 16.3155 25.7972 16.2943 25.8708M17.0498 25.9567C17.0524 26.0328 16.9659 26.0959 16.8589 26.0973C16.7512 26.0997 16.6642 26.0381 16.6631 25.9633C16.6631 25.8864 16.7476 25.8239 16.8551 25.8221C16.9621 25.8199 17.0498 25.881 17.0498 25.9567M17.792 25.9275C17.8048 26.0018 17.7304 26.078 17.6242 26.0983C17.5197 26.1178 17.423 26.072 17.4097 25.9984C17.3967 25.9223 17.4725 25.8461 17.5767 25.8263C17.6832 25.8074 17.7784 25.852 17.792 25.9275" fill="#24292F"/>
</svg>
