<svg width="40" height="40" viewBox="0 0 40 40" fill="none" xmlns="http://www.w3.org/2000/svg">
<rect width="40" height="40" rx="20" fill="#F2F2F2"/>
<path fill-rule="evenodd" clip-rule="evenodd" d="M28.64 20.2047C28.64 19.5665 28.5827 18.9529 28.4764 18.3638H20V21.8451H24.8436C24.635 22.9701 24.0009 23.9233 23.0477 24.5615V26.8197H25.9564C27.6582 25.2529 28.64 22.9456 28.64 20.2047Z" fill="#4285F4"/>
<path fill-rule="evenodd" clip-rule="evenodd" d="M19.9998 29C22.4298 29 24.467 28.1941 25.9561 26.8195L23.0475 24.5613C22.2416 25.1013 21.2107 25.4204 19.9998 25.4204C17.6557 25.4204 15.6716 23.8372 14.9638 21.71H11.957V24.0418C13.4379 26.9831 16.4816 29 19.9998 29Z" fill="#34A853"/>
<path fill-rule="evenodd" clip-rule="evenodd" d="M14.9641 21.7098C14.7841 21.1698 14.6818 20.593 14.6818 19.9998C14.6818 19.4066 14.7841 18.8298 14.9641 18.2898V15.958H11.9573C11.3477 17.173 11 18.5476 11 19.9998C11 21.4521 11.3477 22.8266 11.9573 24.0416L14.9641 21.7098Z" fill="#FBBC05"/>
<path fill-rule="evenodd" clip-rule="evenodd" d="M19.9998 14.5795C21.3211 14.5795 22.5075 15.0336 23.4402 15.9255L26.0216 13.3441C24.4629 11.8918 22.4257 11 19.9998 11C16.4816 11 13.4379 13.0168 11.957 15.9582L14.9638 18.29C15.6716 16.1627 17.6557 14.5795 19.9998 14.5795Z" fill="#EA4335"/>
</svg>
